/* XPM */
static char *grid3[] = {
"19 19 3 1",
".	c none",
"#	c #000000",
"a	c #ffffff",
"...................",
"..#######.#######..",
"..#aaaaa#.#aaaaa#..",
"..#aaaaa#.#aaaaa#..",
"..#aaaaa#.#aaaaa#..",
"..#aaaaa#.#aaaaa#..",
"..#aaaaa#.#aaaaa#..",
"..#aaaaa#.#aaaaa#..",
"..#######.#######..",
"...................",
"..#######.#######..",
"..#aaaaa#.#aaaaa#..",
"..#aaaaa#.#aaaaa#..",
"..#aaaaa#.#aaaaa#..",
"..#aaaaa#.#aaaaa#..",
"..#aaaaa#.#aaaaa#..",
"..#aaaaa#.#aaaaa#..",
"..#######.#######..",
"..................."
};
