/* XPM */
static char *grid[] = {
"19 19 2 1",
".	c none",
"#	c #000000",
"...................",
"...................",
"...................",
"...#############...",
"...#..#..#..#..#...",
"...#############...",
"...#..#..#..#..#...",
"...#############...",
"...#..#..#..#..#...",
"...#############...",
"...#..#..#..#..#...",
"...#############...",
"...#..#..#..#..#...",
"...#############...",
"...#..#..#..#..#...",
"...#############...",
"...................",
"...................",
"..................."
};
