/* XPM */
static char *zoomhorizout[]={
"16 16 5 1",
"#	c #000000",
"c	c #616161",
".	c None",
"b	c #f7f7f7",
"a	c #ffffff",
"................",
"................",
".....#...#......",
"....##...##.....",
"...#a#...#a#....",
"..#aa#####ba#...",
".#aa.aabaa.ab#..",
"#aa.........aa#.",
".#aa.......ba#c.",
".c#aa#####ba#c..",
"..c#a#ccc#a#c...",
"...c##c.c##c....",
"....c#c.c#c.....",
".....cc.cc......",
"................",
"................"};
