/* XPM */
static char *landscape[] = {
/* width height num_colors chars_per_pixel */
"    35    33        3            1",
/* colors */
".	c #000000",
"#	c none",
"a	c #ffffff",
/* pixels */
"###################################",
"###################################",
"###################################",
"###################################",
"###################################",
"##.........................########",
"##.aaaaaaaaaaaaaaaaaaaaaaa..#######",
"##.aaaaaaaaaaaaaaaaaaaaaaa.a.######",
"##.aaaaaaaaaaaaa..aaaaaaaa.aa.#####",
"##.aaaaaaaaaaaaa..aaaaaaaa.aaa.####",
"##.aaaaaaaaaaaa....aaaaaaa.aaaa.###",
"##.aaaaaaaaaaaa....aaaaaaa.......##",
"##.aaaaaaaaaaa..a...aaaaaaaaaaaa.##",
"##.aaaaaaaaaaa.aa...aaaaaaaaaaaa.##",
"##.aaaaaaaaaa..aa....aaaaaaaaaaa.##",
"##.aaaaaaaaaa.aaaa...aaaaaaaaaaa.##",
"##.aaaaaaaaa..aaaa....aaaaaaaaaa.##",
"##.aaaaaaaaa.aaaaaa...aaaaaaaaaa.##",
"##.aaaaaaaa............aaaaaaaaa.##",
"##.aaaaaaaa.aaaaaaaa...aaaaaaaaa.##",
"##.aaaaaaa..aaaaaaaa....aaaaaaaa.##",
"##.aaaaaaa.aaaaaaaaaa...aaaaaaaa.##",
"##.aaaaaa..aaaaaaaaaa....aaaaaaa.##",
"##.aaaa......aaaaaa........aaaaa.##",
"##.aaaaaaaaaaaaaaaaaaaaaaaaaaaaa.##",
"##.aaaaaaaaaaaaaaaaaaaaaaaaaaaaa.##",
"##.aaaaaaaaaaaaaaaaaaaaaaaaaaaaa.##",
"##...............................##",
"###################################",
"###################################",
"###################################",
"###################################",
"###################################",
};
