/* XPM */
static char *zoomoutboth[]={
"16 16 3 1",
".	c none",
"#	c #000000",
"a	c #888888",
".......#........",
"......#a#.......",
".....#aaa#......",
"......#a#.......",
"......#a#.......",
"..#...#a#...#...",
".#a###...###a#..",
"#aaaaa...aaaaa#.",
".#a###...###a#..",
"..#...#a#...#...",
"......#a#.......",
"......#a#.......",
".....#aaa#......",
"......#a#.......",
".......#........",
"................"};
