/* XPM */
static char *zoomvertout[]={
"16 16 3 1",
".	c none",
"#	c #000000",
"a	c #888888",
"................",
".......#........",
"......#a#.......",
".....#aaa#......",
"....#aaaaa#.....",
"...#aaaaaaa#....",
"..####aaa####...",
".....#aaa#......",
".....#aaa#......",
".....#aaa#......",
"..####aaa####...",
"...#aaaaaaa#....",
"....#aaaaa#.....",
".....#aaa#......",
"......#a#.......",
".......#........"};
