/* XPM */
static char *left[] = {
/* width height num_colors chars_per_pixel */
"    16    16        5            1",
/* colors */
".	c none",
"#	c #000000",
"a	c #ffffff",
"b	c #f7f7f7",
"c	c #616161",
/* pixels */
"................",
"................",
"......#.........",
".....##.........",
"....#a#.........",
"...#ab########..",
"..#ba.aabaaba#..",
".#aa.........#..",
"..#a.........#..",
"..c#a.########..",
"...c#a#ccccccc..",
"....c##c........",
".....c#c........",
"......cc........",
".......c........",
"................"
};
