/* XPM */
static char *zoomoutboth[]={
"16 16 4 1",
"b	c #a0a0a0",
"#	c #000000",
".	c None",
"a	c #ffffff",
".......#........",
"......###.......",
".....##a##......",
"......#a#.......",
"......#a#.......",
"..#...#a#...#...",
".######a######..",
"##aaaaaaaaaaa##.",
".######a######b.",
".b#bbb#a#bbb#bb.",
"..b..b#a#b..b...",
".....b#a#b......",
".....##a##......",
".....b###b......",
"......b#b.......",
".......b........"};
