/* XPM */
static char *vert[] = {
"19 19 3 1",
".	c none",
"#	c #000000",
"a	c #ffffff",
"...................",
"..###############..",
"..#aaaaaaaaaaaaa#..",
"..#aaaaaaaaaaaaa#..",
"..#aaaaaaaaaaaaa#..",
"..###############..",
"...................",
"..###############..",
"..#aaaaaaaaaaaaa#..",
"..#aaaaaaaaaaaaa#..",
"..#aaaaaaaaaaaaa#..",
"..###############..",
"...................",
"..###############..",
"..#aaaaaaaaaaaaa#..",
"..#aaaaaaaaaaaaa#..",
"..#aaaaaaaaaaaaa#..",
"..###############..",
"..................."
};
