/* XPM */
static char *zoomvertout[]={
"16 16 5 1",
".	c none",
"a	c #000000",
"b	c #616161",
"d	c #f7f7f7",
"c	c #ffffff",
"................",
".......ab.......",
"......acab......",
".....adccab.....",
"....acc.dcab....",
"...acd...dcab...",
"..aaaac..aaaab..",
".....ac..abbbb..",
".....ad..ab.....",
".....ac..ab.....",
"..aaaac..aaaab..",
"...acc...ccabb..",
"....acc.ccab....",
".....acccab.....",
"......acab......",
".......ab......."};
