/* XPM */
static char *fill[] = {
"19 19 3 1",
".	c none",
"#	c #000000",
"a	c #ffffbb",
"...................",
"..########.........",
"..#......#.........",
"..#......#.........",
"..#......#.##......",
"..#......#...#.....",
"..#......#....#....",
"..#......#..#.#.#..",
"..########...###...",
"..............#....",
".........########..",
".........#aaaaaa#..",
".........#aaaaaa#..",
".........#aaaaaa#..",
".........#aaaaaa#..",
".........#aaaaaa#..",
".........#aaaaaa#..",
".........########..",
"..................."
};
