#define icon_width 50
#define icon_height 50
static char icon_bits[] = {
   0x00, 0x00, 0x00, 0x00, 0x00, 0x00, 0x00, 0x00, 0x00, 0x00, 0x00, 0x00,
   0x00, 0x00, 0x00, 0x00, 0x00, 0x00, 0x00, 0x00, 0x00, 0x80, 0xcf, 0xe7,
   0x13, 0xf8, 0x7c, 0x00, 0x80, 0x40, 0x20, 0x12, 0x88, 0x10, 0x00, 0x80,
   0x40, 0xe0, 0x13, 0x88, 0x10, 0x00, 0x98, 0x4e, 0x20, 0x10, 0x88, 0x10,
   0x00, 0x88, 0x48, 0x20, 0x10, 0x88, 0x10, 0x00, 0x88, 0xcf, 0x27, 0xf0,
   0xf9, 0x10, 0x00, 0x08, 0x00, 0x00, 0x00, 0x00, 0x00, 0x00, 0x08, 0x00,
   0x00, 0x00, 0x00, 0x00, 0x00, 0x18, 0x00, 0x00, 0x00, 0x00, 0x00, 0x00,
   0x08, 0x00, 0x00, 0x00, 0x00, 0x00, 0x00, 0x08, 0x00, 0x00, 0x00, 0x00,
   0x00, 0x00, 0x08, 0x00, 0x00, 0x00, 0x00, 0x00, 0x00, 0x08, 0x00, 0x00,
   0x00, 0x00, 0x00, 0x00, 0x18, 0x00, 0x00, 0x00, 0x01, 0x00, 0x00, 0x08,
   0x00, 0x00, 0x80, 0x03, 0x00, 0x00, 0x08, 0x00, 0x00, 0x80, 0x02, 0x00,
   0x00, 0x08, 0x00, 0x00, 0xc0, 0x02, 0x00, 0x00, 0x08, 0x00, 0x00, 0x40,
   0x04, 0x00, 0x00, 0x18, 0x00, 0x00, 0x40, 0x04, 0x00, 0x00, 0x08, 0x00,
   0x00, 0x60, 0x04, 0x00, 0x00, 0x08, 0x00, 0x00, 0x20, 0x04, 0x00, 0x00,
   0x08, 0x00, 0x00, 0x20, 0x0c, 0x00, 0x00, 0x08, 0x00, 0x00, 0x20, 0x08,
   0x00, 0x00, 0x18, 0x00, 0x00, 0x30, 0x08, 0x00, 0x00, 0x08, 0x00, 0x00,
   0x10, 0x08, 0x00, 0x00, 0x08, 0x00, 0x00, 0x18, 0x08, 0x00, 0x00, 0x08,
   0x00, 0x00, 0x18, 0x18, 0x00, 0x00, 0x08, 0x00, 0x00, 0x18, 0x10, 0x00,
   0x00, 0x18, 0x00, 0x00, 0x08, 0x10, 0x00, 0x00, 0x08, 0x00, 0x00, 0x08,
   0x30, 0x00, 0x00, 0x08, 0x00, 0x00, 0x08, 0x20, 0x00, 0x00, 0x08, 0x00,
   0x00, 0x04, 0x60, 0x00, 0x00, 0x08, 0xc0, 0x00, 0x04, 0x40, 0x00, 0x00,
   0x18, 0xe0, 0x00, 0x04, 0xc0, 0x00, 0x00, 0x08, 0x20, 0x01, 0x06, 0x80,
   0x01, 0x00, 0x08, 0x30, 0x01, 0x02, 0x80, 0x03, 0x00, 0x08, 0x10, 0x03,
   0x02, 0x00, 0x0f, 0x00, 0x08, 0x1c, 0x0e, 0x03, 0x00, 0x7c, 0x00, 0xd8,
   0x07, 0xf8, 0x01, 0x00, 0xe0, 0x03, 0x08, 0x00, 0x00, 0x00, 0x00, 0x00,
   0x00, 0x08, 0x00, 0x00, 0x00, 0x00, 0x00, 0x00, 0x08, 0x00, 0x00, 0x00,
   0x00, 0x00, 0x00, 0x08, 0x21, 0x84, 0x10, 0x42, 0x08, 0x01, 0xf8, 0xff,
   0xff, 0xff, 0xff, 0xff, 0x01, 0x00, 0x00, 0x00, 0x00, 0x00, 0x00, 0x00,
   0x00, 0x00, 0x00, 0x00, 0x00, 0x00, 0x00, 0x00, 0x00, 0x00, 0x00, 0x00,
   0x00, 0x00};
