/* XPM */
static char *zoominboth[]={
"16 16 3 1",
".	c None",
"#	c #000000",
"a	c #888888",
"......###.......",
"......#a#.......",
"....###a###.....",
".....#aaa#......",
"..#...#a#...#...",
"..##...#...##...",
"###a#.....#a###.",
"#aaaa#...#aaaa#.",
"###a#.....#a###.",
"..##...#...##...",
"..#...#a#...#...",
".....#aaa#......",
"....###a###.....",
"......#a#.......",
"......###.......",
"................"};
