/* XPM */
static char *zoomvertin[]={
"16 16 3 1",
"#	c #000000",
".	c None",
"a	c #888888",
".....#####......",
".....#aaa#......",
"..####aaa####...",
"...#aaaaaaa#....",
"....#aaaaa#.....",
".....#aaa#......",
"......#a#.......",
".......#........",
".......#........",
"......#a#.......",
".....#aaa#......",
"....#aaaaa#.....",
"...#aaaaaaa#....",
"..####aaa####...",
".....#aaa#......",
".....#####......"};
