/* XPM */
static char *folder_blue[] = {
"16 16 77 1",
".	c #040608",
"X	c #05090b",
"o	c #0c1214",
"O	c #131314",
"+	c #1d1d1d",
"@	c #1b2f36",
"#	c #1a3038",
"$	c #243338",
"%	c #293c42",
"&	c #383e41",
"*	c #2c4047",
"=	c #2b434b",
"-	c #324951",
";	c #37515a",
":	c #2e5664",
">	c #335865",
",	c #3b5b66",
"<	c #4a6d78",
"1	c #687073",
"2	c #6f787b",
"3	c #70787b",
"4	c #547c8a",
"5	c #468093",
"6	c #4d8496",
"7	c #528799",
"8	c #5298af",
"9	c #5da3bb",
"0	c #7d8a8f",
"q	c #6e99a7",
"w	c #6c9cac",
"e	c #609cb1",
"r	c #6a9fb1",
"t	c #67a8be",
"y	c #69a4b8",
"u	c #70a7ba",
"i	c #7faab8",
"p	c #5da7c0",
"a	c #64a9c1",
"s	c #6aafc6",
"d	c #6db0c7",
"f	c #6db1c8",
"g	c #71b5cc",
"h	c #74b8cf",
"j	c #79b1c3",
"k	c #75bad1",
"l	c #7abdd4",
"z	c #7dc0d7",
"x	c #7ec2d9",
"c	c #85969c",
"v	c #83aab7",
"b	c #93a9b1",
"n	c #87b3c2",
"m	c #87b9ca",
"M	c #8cbccc",
"N	c #9abac6",
"B	c #82c5dc",
"V	c #85c8df",
"C	c #9cc9d9",
"Z	c #87c9e0",
"A	c #89cce2",
"S	c #8cd0e7",
"D	c #8ed2e9",
"F	c #95d1e4",
"G	c #91d5ec",
"H	c #95d9f0",
"J	c #9adef5",
"K	c #9be2fa",
"L	c #a5c2cd",
"P	c #a3d9eb",
"I	c #aed5e2",
"U	c #a9dff2",
"Y	c #b4dcea",
"T	c #b5e0ee",
"R	c #bbe1ee",
"E	c #b4e3f2",
"W	c #b9eafb",
"Q	c None",
"QQQQQQQQQQQQQQQQ",
"QQ.$<=QQQ o-;QQQ",
"OiGKKG%=4jDHGoQQ",
"+WKJHHHHGDGAB=QQ",
"QRHGDDDSBk9ynNY$",
"QLDDZlpaMCEUDDAX",
"Qbx9mCEEHDDAAAuQ",
"QcaIJHDDGAAAAZ4Q",
"Q08EGDAAZZVVVx,Q",
"Q3ePAZAZVVBllh=Q",
"Q3wFVVVBxlkgsa@Q",
"Q3wVBBllgda94>.Q",
"Q3qllhfa6>#X.QQQ",
"Q1vf7>@.QQQQQQQQ",
"QO&.QQQQQQQQQQQQ",
"QQQQQQQQQQQQQQQQ"
};
