/* XPM */
static char *portrait[] = {
/* width height num_colors chars_per_pixel */
"    35    33        3            1",
/* colors */
".	c #000000",
"#	c none",
"a	c #ffffff",
/* pixels */
"###################################",
"#####...................###########",
"#####.aaaaaaaaaaaaaaaaa..##########",
"#####.aaaaaaaaaaaaaaaaa.a.#########",
"#####.aaaaaaaaaaaaaaaaa.aa.########",
"#####.aaaaaaaaaaaaaaaaa.aaa.#######",
"#####.aaaaaaaaaaaaaaaaa.aaaa.######",
"#####.aaaaaaaaaaaaaaaaa.......#####",
"#####.aaaaaaaaaaa..aaaaaaaaaa.#####",
"#####.aaaaaaaaaaa..aaaaaaaaaa.#####",
"#####.aaaaaaaaaa....aaaaaaaaa.#####",
"#####.aaaaaaaaaa....aaaaaaaaa.#####",
"#####.aaaaaaaaa..a...aaaaaaaa.#####",
"#####.aaaaaaaaa.aa...aaaaaaaa.#####",
"#####.aaaaaaaa..aa....aaaaaaa.#####",
"#####.aaaaaaaa.aaaa...aaaaaaa.#####",
"#####.aaaaaaa..aaaa....aaaaaa.#####",
"#####.aaaaaaa.aaaaaa...aaaaaa.#####",
"#####.aaaaaa............aaaaa.#####",
"#####.aaaaaa.aaaaaaaa...aaaaa.#####",
"#####.aaaaa..aaaaaaaa....aaaa.#####",
"#####.aaaaa.aaaaaaaaaa...aaaa.#####",
"#####.aaaa..aaaaaaaaaa....aaa.#####",
"#####.aa......aaaaaa........a.#####",
"#####.aaaaaaaaaaaaaaaaaaaaaaa.#####",
"#####.aaaaaaaaaaaaaaaaaaaaaaa.#####",
"#####.aaaaaaaaaaaaaaaaaaaaaaa.#####",
"#####.aaaaaaaaaaaaaaaaaaaaaaa.#####",
"#####.aaaaaaaaaaaaaaaaaaaaaaa.#####",
"#####.aaaaaaaaaaaaaaaaaaaaaaa.#####",
"#####.aaaaaaaaaaaaaaaaaaaaaaa.#####",
"#####.........................#####",
"###################################",
};
