/* XPM */
static char *zoomvertin[]={
"16 16 4 1",
"#	c #000000",
"b	c #616161",
".	c None",
"a	c #ffffff",
".....#a..#b.....",
".....#a..#bbbb..",
"..####a..####b..",
"...#aa...aa#b...",
"....#aa.aa#b....",
".....#aaa#b.....",
"......#a#b......",
".......#b.......",
".......#b.......",
"......#a#b......",
".....#aaa#b.....",
"....#aa.aa#b....",
"...#aa....a#b...",
"..####a..####b..",
".....#a..#b.....",
".....#a..#b....."};
