/* XPM */
static char *right[] = {
/* width height num_colors chars_per_pixel */
"    16    16        5            1",
/* colors */
".	c none",
"#	c #000000",
"a	c #ffffff",
"b	c #f7f7f7",
"c	c #616161",
/* pixels */
"................",
"................",
".........#......",
".........##.....",
".........#a#....",
"..########ba#...",
"..#abaabaa.ab#..",
"..#.........aa#.",
"..#.........a#..",
"..########.a#c..",
"..ccccccc#a#c...",
"........c##c....",
"........c#c.....",
"........cc......",
"........c.......",
"................"
};
