/* XPM */
static char *down[] = {
/* width height num_colors chars_per_pixel */
"    16    16        5            1",
/* colors */
".	c none",
"#	c #000000",
"a	c #ffffff",
"b	c #f7f7f7",
"c	c #616161",
/* pixels */
"................",
"................",
".....#####c.....",
".....#a..#c.....",
".....#b..#c.....",
".....#a..#c.....",
".....#a..#c.....",
".....#b..#c.....",
".....#a..#ccccc.",
"..####a..####c..",
"...#ab....a#c...",
"....#aa..a#c....",
".....#baa#c.....",
"......#a#c......",
".......#........",
"................"
};
