/* XPM */
static char *zoomin[] = {
/* width height num_colors chars_per_pixel */
"16 16 3 1",
/* colors */
".	c None",
"#	c #000000",
"X	c #ffffff",
/* pixels */
"................",
"................",
"...####.........",
"..#....#....##..",
".#..X...#...##..",
".#.X....#.######",
".#......#.######",
".#......#...##..",
"..#....##...##..",
"...#######......",
"........###.....",
".........###....",
"..........###...",
"...........##...",
"................",
"................"
};
