/* XPM */
static char *zoomhorizin[]={
"16 16 3 1",
"#	c #000000",
".	c None",
"a	c #888888",
"................",
"................",
"..#..........#..",
"..##........##..",
"..#a#......#a#..",
"###aa#....#aa###",
"#aaaaa#..#aaaaa#",
"#aaaaaa##aaaaaa#",
"#aaaaa#..#aaaaa#",
"###aa#....#aa###",
"..#a#......#a#..",
"..##........##..",
"..#..........#..",
"................",
"................",
"................"};
