/* XPM */
static char *zoomhorizout[]={
"16 16 3 1",
"#	c #000000",
".	c None",
"a	c #888888",
"................",
"................",
".....#...#......",
"....##...##.....",
"...#a#...#a#....",
"..#aa#####aa#...",
".#aaaaaaaaaaa#..",
"#aaaaaaaaaaaaa#.",
".#aaaaaaaaaaa#..",
"..#aa#####aa#...",
"...#a#...#a#....",
"....##...##.....",
".....#...#......",
"................",
"................",
"................"};
