/* XPM */
static char *horiz[] = {
"19 19 3 1",
".	c none",
"#	c #000000",
"a	c #ffffff",
"...................",
".#####.#####.#####.",
".#aaa#.#aaa#.#aaa#.",
".#aaa#.#aaa#.#aaa#.",
".#aaa#.#aaa#.#aaa#.",
".#aaa#.#aaa#.#aaa#.",
".#aaa#.#aaa#.#aaa#.",
".#aaa#.#aaa#.#aaa#.",
".#aaa#.#aaa#.#aaa#.",
".#aaa#.#aaa#.#aaa#.",
".#aaa#.#aaa#.#aaa#.",
".#aaa#.#aaa#.#aaa#.",
".#aaa#.#aaa#.#aaa#.",
".#aaa#.#aaa#.#aaa#.",
".#aaa#.#aaa#.#aaa#.",
".#aaa#.#aaa#.#aaa#.",
".#aaa#.#aaa#.#aaa#.",
".#####.#####.#####.",
"..................."
};
