/* XPM */
static char *zoominboth[]={
"16 16 4 1",
".	c None",
"b	c #000000",
"#	c #000000",
"a	c #ffffff",
"......#a#b......",
"......#a#b......",
"....#.#a#b#.....",
".....##a##b.....",
"..#..b#a#b..#...",
"...#..b#b..#b...",
"#####..bb.#####.",
"aaaaa#...#aaaaa.",
"#####b....#####.",
"bbb#b..#..b#bbb.",
"..#b..#a#..b#...",
".....##a##......",
"....#b#a#b#.....",
"......#a#b......",
"......#a#b......",
"......bbbb......"};
