#define Down_width 32
#define Down_height 32
#define Down_x_hot 0
#define Down_y_hot 0
static unsigned char Down_bits[] = {
   0x00, 0x00, 0x00, 0x00, 0x00, 0x00, 0x00, 0x00, 0x00, 0x00, 0x00, 0x00,
   0x00, 0x00, 0x00, 0x00, 0x00, 0xf0, 0x3f, 0x00, 0x00, 0xf0, 0x3f, 0x00,
   0x00, 0x30, 0x30, 0x00, 0x00, 0x30, 0x30, 0x00, 0x00, 0x30, 0x30, 0x00,
   0x00, 0x30, 0x30, 0x00, 0x00, 0x30, 0x30, 0x00, 0x00, 0x30, 0x30, 0x00,
   0x00, 0x30, 0x30, 0x00, 0x00, 0x30, 0x30, 0x00, 0x00, 0x30, 0x30, 0x00,
   0x00, 0x30, 0x30, 0x00, 0x00, 0x30, 0x30, 0x00, 0x00, 0x30, 0x30, 0x00,
   0x00, 0x3f, 0xf0, 0x03, 0x00, 0x3f, 0xf0, 0x03, 0x00, 0x06, 0x80, 0x01,
   0x00, 0x0c, 0xc0, 0x00, 0x00, 0x18, 0x60, 0x00, 0x00, 0x30, 0x30, 0x00,
   0x00, 0x60, 0x18, 0x00, 0x00, 0xc0, 0x0c, 0x00, 0x00, 0x80, 0x07, 0x00,
   0x00, 0x00, 0x03, 0x00, 0x00, 0x00, 0x00, 0x00, 0x00, 0x00, 0x00, 0x00,
   0x00, 0x00, 0x00, 0x00, 0x00, 0x00, 0x00, 0x00};
