/* XPM */
static char * Down [] = {
/* width height ncolors cpp [x_hot y_hot] */
"32 32 3 1 0 0",
/* colors */
" 	m none	c none",
".	m black	c black",
"X	m white	c white",
/* pixels */
"                                ",
"                                ",
"                                ",
"                                ",
"            ..........          ",
"            .........X          ",
"            ..      XX          ",
"            ..      XX          ",
"            ..      XX          ",
"            ..      XX          ",
"            ..      XX          ",
"            ..      XX          ",
"            ..      XX          ",
"            ..      XX          ",
"            ..      XX          ",
"            ..      XX          ",
"            ..      XX          ",
"            ..      XX          ",
"        ......      XXXXXX      ",
"        ......      XXXXXX      ",
"         ..            XX       ",
"          ..          XX        ",
"           ..        XX         ",
"            ..      XX          ",
"             ..    XX           ",
"              ..  XX            ",
"               ..XX             ",
"                .X              ",
"                                ",
"                                ",
"                                ",
"                                "};
