/* XPM */
static char * Right [] = {
/* width height ncolors cpp [x_hot y_hot] */
"32 32 3 1 0 0",
/* colors */
" 	s none	m none	c none",
".	m black	c black",
"X	m white	c white",
/* pixels */
"                                ",
"                                ",
"                                ",
"                                ",
"                                ",
"                                ",
"                                ",
"                                ",
"                  ..            ",
"                  ...           ",
"                  ....          ",
"                  .. ..         ",
"    ................  ..        ",
"    ................   ..       ",
"    ..                  ..      ",
"    ..                   ..     ",
"    ..                    ..    ",
"    ..                    XX    ",
"    ..                   XX     ",
"    ..                  XX      ",
"    ..XXXXXXXXXXXXXX   XX       ",
"    .XXXXXXXXXXXXXXX  XX        ",
"                  XX XX         ",
"                  XXXX          ",
"                  XXX           ",
"                  XX            ",
"                                ",
"                                ",
"                                ",
"                                ",
"                                ",
"                                "};
