/* XPM */
static char *up[] = {
/* width height num_colors chars_per_pixel */
"    16    16        5            1",
/* colors */
".	c none",
"#	c #000000",
"a	c #ffffff",
"b	c #f7f7f7",
"c	c #616161",
/* pixels */
"................",
".......#........",
"......#a#c......",
".....#baa#c.....",
"....#aa..a#c....",
"...#ab....a#c...",
"..####a..####c..",
".....#a..#ccccc.",
".....#b..#c.....",
".....#a..#c.....",
".....#a..#c.....",
".....#b..#c.....",
".....#a..#c.....",
".....#####c.....",
"................",
"................"
};
