/* XPM */
static char * ZoomOut [] = {
/* width height ncolors cpp [x_hot y_hot] */
"32 32 3 1 0 0",
/* colors */
" 	s none	m none	c none",
".	m black	c black",
"X	m white	c white",
/* pixels */
"               .                ",
"              ..X               ",
"             .. XX              ",
"            ..   XX             ",
"           ..     XX            ",
"          ..       XX           ",
"         ....     XXXX          ",
"            .     X             ",
"            .     X             ",
"      .     .     X      .      ",
"     ..     .     X      ..     ",
"    ...     .     X      ...    ",
"   .. .......     ........ ..   ",
"  ..                        ..  ",
" ..                          .. ",
"X.                            ..",
" XX                          XX ",
"  XX                        XX  ",
"   XX XXXXXX.     XXXXXXXX XX   ",
"    XXX     .     X      XXX    ",
"     XX     .     X      XX     ",
"      X     .     X      X      ",
"            .     X             ",
"            .     X             ",
"            .     X             ",
"         ....     XXXX          ",
"          ..       XX           ",
"           ..     XX            ",
"            ..   XX             ",
"             .. XX              ",
"              ..X               ",
"               X                "};
