/* XPM */
static char * ZoomHorizOut [] = {
/* width height ncolors cpp [x_hot y_hot] */
"32 32 3 1 0 0",
/* colors */
" 	s none	m none	c none",
".	s iconColor1	m black	c black",
"X	s iconColor2	m white	c white",
/* pixels */
"                                ",
"                                ",
"                                ",
"                                ",
"                                ",
"                                ",
"                                ",
"                                ",
"                                ",
"      .                  .      ",
"     ..                  ..     ",
"    ...                  ...    ",
"   .. .......     ........ ..   ",
"  ..        X     .         ..  ",
" ..         X     .          .. ",
"..          X     .           ..",
" XX         X     .          XX ",
"  XX        X     .         XX  ",
"   XX XXXXXXX     .XXXXXXX XX   ",
"    XXX                  XXX    ",
"     XX                  XX     ",
"      X                  X      ",
"                                ",
"                                ",
"                                ",
"                                ",
"                                ",
"                                ",
"                                ",
"                                ",
"                                ",
"                                "};
