/* XPM */
static char * ZoomIn [] = {
/* width height ncolors cpp [x_hot y_hot] */
"32 32 3 1 0 0",
/* colors */
" 	s none	m none	c none",
".	s iconColor1	m black	c black",
"X	s iconColor2	m white	c white",
/* pixels */
"            .......             ",
"            .     X             ",
"            .     X             ",
"            .     X             ",
"            .     X             ",
"         ....     XXXX          ",
"          ..       XX           ",
"           ..     XX            ",
"            ..   XX             ",
"      .      .. XX      .       ",
"      ..      ..X      ..       ",
"      ...      .      ...       ",
"....... ..           .. ........",
".        ..         ..         X",
".         ..       ..          X",
".          ..     ..           X",
".         XX       XX          X",
".        XX         XX         X",
".XXXXXX XX           XX XXXXXXXX",
"      XXX      .      XXX       ",
"      XX      ..X      XX       ",
"      X      .. XX      X       ",
"            ..   XX             ",
"           ..     XX            ",
"          ..       XX           ",
"         ....     XXXX          ",
"            .     X             ",
"            .     X             ",
"            .     X             ",
"            .     X             ",
"            .     X             ",
"            .XXXXXX             "};
