/* XPM */
static char *chart[] = {
"19 19 4 1",
".	c none",
"#	c #000000",
"a	c #ff0000",
"b	c #0000ff",
"...................",
"..##...............",
"..#................",
"..#................",
"..##...............",
"..#..............a.",
"..#.............a..",
"..##...bb....aaa...",
"..#.bbb..bb.a......",
"..#.......aa.......",
"..##...aaa..bb.....",
"..#...a.......b....",
"..#.aa.........b...",
"..##............b..",
"..#..............b.",
"..#..#..#..#..#..#.",
"..################.",
"...................",
"..................."
};
