/* XPM */
static char *zoomhorizin[]={
"16 16 4 1",
"#	c #000000",
"b	c #616161",
".	c None",
"a	c #ffffff",
"................",
"................",
"..#..........#..",
"..##........##..",
"..#a#......#a#..",
"###aa#....#aa###",
"aaa.aa#..#aa.aaa",
".....aa##aa.....",
"....aa#bb#aa....",
"###.a#b..b#aa###",
"bb#a#b....b#a#bb",
"..##b......b##b.",
"..#b........b#b.",
"..b..........bb.",
"................",
"................"};
